<?xml version="1.0" encoding="utf-8"?>
<!-- Generator: Adobe Illustrator 15.1.0, SVG Export Plug-In . SVG Version: 6.00 Build 0)  -->
<!DOCTYPE svg PUBLIC "-//W3C//DTD SVG 1.1//EN" "http://www.w3.org/Graphics/SVG/1.1/DTD/svg11.dtd">
<svg version="1.1" id="Layer_1" xmlns="http://www.w3.org/2000/svg" xmlns:xlink="http://www.w3.org/1999/xlink" x="0px" y="0px"
	 width="20.313px" height="20.125px" viewBox="0 0 20.313 20.125" enable-background="new 0 0 20.313 20.125" xml:space="preserve">
<g>
	<g>
		<path fill="#C5C5C5" d="M10.146,0.125c1.38,0,2.677,0.262,3.892,0.786s2.274,1.239,3.179,2.144
			c0.905,0.905,1.62,1.964,2.144,3.179s0.786,2.511,0.786,3.892c0,1.381-0.263,2.678-0.786,3.892s-1.238,2.274-2.144,3.179
			c-0.905,0.904-1.964,1.619-3.179,2.144s-2.511,0.786-3.892,0.786s-2.677-0.262-3.892-0.786S3.98,18.1,3.075,17.195
			s-1.62-1.965-2.144-3.179s-0.786-2.511-0.786-3.892c0-1.38,0.262-2.677,0.786-3.892S2.17,3.959,3.075,3.055
			s1.964-1.62,3.179-2.144S8.765,0.125,10.146,0.125z M10.146,18.25c1.12,0,2.173-0.213,3.159-0.64s1.847-1.007,2.583-1.743
			s1.317-1.597,1.743-2.583s0.64-2.04,0.64-3.159c0-1.12-0.214-2.173-0.64-3.159s-1.007-1.847-1.743-2.583s-1.597-1.317-2.583-1.743
			S11.265,2,10.146,2S7.973,2.213,6.986,2.64S5.139,3.647,4.403,4.383S3.086,5.979,2.66,6.966s-0.64,2.04-0.64,3.159
			c0,1.119,0.213,2.173,0.64,3.159s1.007,1.847,1.743,2.583S6,17.184,6.986,17.61S9.026,18.25,10.146,18.25z M15.146,7l-3.125,3.125
			l3.125,3.125l-1.875,1.875L10.146,12l-3.125,3.125L5.146,13.25l3.125-3.125L5.146,7l1.875-1.875l3.125,3.125l3.125-3.125L15.146,7
			z"/>
	</g>
</g>
</svg>
